<?xml version="1.0" encoding="UTF-8"?>
<!DOCTYPE svg PUBLIC "-//W3C//DTD SVG 1.1//EN" "http://www.w3.org/Graphics/SVG/1.1/DTD/svg11.dtd">
<svg xmlns="http://www.w3.org/2000/svg" xml:space="preserve" width="144.221mm" height="176.467mm" version="1.1" viewBox="0 0 15415.22 18861.89">
   <path fill="000" d="M11811.75 116c21.87,-82.21 111.61,-121.42 190.42,-115.38 668.54,-0.37 1337.09,-1.51 2005.26,0.75 74.66,-4.52 154.97,39.6 174.96,115.01 9.43,125.94 0,252.64 2.64,378.95 -792.6,0.38 -1585.58,0.38 -2378.56,0 1.88,-126.69 -7.92,-253.38 5.28,-379.33zm-1.52 748.11c792.99,-0.76 1585.97,-0.37 2378.95,-0.37 0.37,308.07 0,615.75 0,923.44 -792.98,0.37 -1585.96,0.76 -2378.95,0 -0.75,-307.69 -0.75,-615.38 0,-923.07zm-11185.8 872.92c245.85,-271.87 607.47,-434.76 974.73,-434.39 3238.29,-1.13 6476.95,0.76 9715.23,-0.75 2.64,166.66 1.13,333.7 1.51,500.37 -3164,0.76 -6327.99,0 -9491.62,0.76 -419.3,-10.93 -825.78,261.68 -972.84,654.22 -79.94,188.54 -72.78,396.68 -70.9,597.28 0,2908.34 0.38,5816.69 -0.37,8725.4 -168.17,0 -336.35,0 -504.52,-0.37 -0.37,-3045.98 -0.75,-6092.33 0,-9138.31 -1.88,-331.07 123.68,-661.01 348.79,-904.22zm11185.42 420.06c792.98,-0.38 1585.96,0 2378.95,0 0.75,678.73 -0.38,1357.07 0.75,2035.8 340.87,1.51 682.13,-0.75 1023.37,0.76 77.67,-5.28 166.67,26.02 193.82,106.33 27.52,65.23 -17.35,126.32 -57.31,173.83 -734.16,849.92 -1466.44,1702.1 -2200.97,2551.64 -67.87,93.51 -220.97,97.66 -289.96,3.77 -745.47,-865.01 -1493.96,-1728.12 -2236.04,-2596.14 -92.76,-96.53 16.97,-250.37 136.5,-237.93 349.92,-5.28 700.6,0.37 1050.9,-2.27 0,-678.34 0,-1357.07 0,-2035.8zm-9521.41 2595c2650.44,-1.88 5300.85,0.37 7951.29,-1.13 213.42,242.09 423.07,487.94 635.36,731.52 -2861.59,1.13 -5723.17,-0.75 -8584.76,1.13 -3.4,-243.97 -0.38,-487.93 -1.89,-731.52zm0.37 1918.16c0.38,-243.97 -1.12,-487.55 0.76,-731.52 2981.12,0.76 5962.23,-0.37 8942.98,0.76 0.75,243.58 0.75,487.55 0,731.13 -2981.12,-0.37 -5962.62,0.76 -8943.74,-0.37zm-0.37 457.01c2981.5,-0.76 5962.99,-0.37 8944.49,-0.37 0,243.96 0.37,487.54 -0.37,731.12 -2981.12,0.37 -5962.62,1.13 -8943.74,-0.37 0,-243.59 0,-486.79 -0.37,-730.38zm10452.4 416.28c164.4,55.81 341.63,60.33 507.16,6.79 -5.28,3340.85 2.64,6681.7 -3.77,10022.54 -6.41,690.04 -626.7,1295.99 -1316.73,1287.32 -3417.4,2.64 -6834.4,0 -10251.42,1.51 -207.77,3.01 -418.17,-29.4 -608.21,-116.13 -445.32,-194.58 -765.46,-648.56 -788.46,-1135.74 -9.43,-279.04 -1.88,-558.06 -3.77,-837.1 168.17,-0.75 336.35,-0.75 504.9,0 6.79,241.33 -15.46,484.54 15.47,724.36 71.64,471.71 510.18,852.93 988.3,852.93 3179.83,2.27 6360.04,0.38 9539.88,1.13 226.25,-7.54 458.89,24.88 679.49,-41.47 317.12,-91.63 581.07,-345.78 683.63,-659.5 64.85,-183.26 53.91,-380.09 53.91,-571.26 -0.37,-3178.33 0,-6356.67 -0.37,-9535.37zm-10452.4 1506.02c3.01,-244.72 -5.65,-489.82 5.28,-734.16 2979.62,7.16 5959.22,0.76 8938.84,3.4 0.75,243.58 0.37,487.18 0.37,731.13 -2981.5,0 -5962.99,0.38 -8944.49,-0.37zm0.37 457.01c2335.21,-0.76 4670.78,-0.38 7005.97,-0.38 -0.75,243.97 2.64,487.94 -2.26,731.89 -2334.44,-0.75 -4668.89,0 -7003.33,-0.37 -0.76,-243.58 -0.38,-487.55 -0.38,-731.13zm-2288.44 2602.92c3414,0 6828,-0.75 10242.37,0.37 -822.02,722.85 -1648.93,1440.04 -2470.57,2163.26 825.41,722.47 1651.56,1444.18 2476.6,2167.02 -3416.25,0.76 -6832.51,0.38 -10248.78,0 0,-1443.42 0,-2887.23 0.38,-4330.66l0 0zm1338.6 1062.96c-0.38,732.28 -0.76,1464.92 0.37,2197.2 260.56,-1.51 521.49,2.64 782.04,-1.89 232.27,-6.03 466.44,-93.13 629.71,-261.68 175.34,-172.32 261.69,-421.2 255.65,-664.78 -6.79,-243.97 24.13,-499.62 -75.03,-730.39 -124.05,-309.2 -439.29,-521.49 -770.74,-535.06 -273.75,-7.92 -547.88,-0.76 -822.01,-3.4l0 0zm2689.64 9.8c-210.41,63.73 -385.74,220.97 -487.18,414.41 -148.19,269.98 -104.08,587.47 -109.34,882.35 -3.02,268.47 104.45,539.96 309.95,716.05 235.67,211.91 586.35,247.74 881.59,160.63 345.4,-104.45 590.12,-446.83 601.81,-803.91 3.39,-174.2 1.51,-348.41 -1.13,-522.24 -3.4,-255.66 -111.61,-511.31 -308.44,-677.61 -238.69,-209.65 -588.24,-256.02 -887.25,-169.68l0 0zm1969.44 116.89c-235.29,175.72 -349.92,475.11 -345.4,762.82 5.28,226.25 -19.6,456.25 29.04,679.11 67.87,306.55 313.35,578.04 627.82,637.62 296.76,56.94 645.92,2.64 852.94,-236.05 121.41,-131.97 164.02,-313.72 167.04,-488.68 -119.16,-0.75 -238.31,-1.12 -357.47,-0.75 -10.93,133.11 -38.08,282.05 -153.84,366.51 -205.13,144.8 -539.58,120.66 -681.37,-102.18 -161.39,-225.11 -121.04,-515.08 -126.69,-774.88 -6.79,-205.88 27.52,-429.11 174.96,-584.08 146.68,-157.63 399.69,-156.49 582.57,-67.5 147.05,74.29 195.32,245.48 204.37,398.18 118.78,0 237.94,-0.37 357.09,-1.13 -6.03,-110.85 -10.55,-225.1 -57.69,-328.04 -85.59,-206.64 -286.57,-347.66 -501.88,-391.41 -259.8,-54.3 -555.05,-37.32 -771.48,130.47zm-4289.93 167.8c252.64,9.05 556.93,-56.18 750.75,151.59 219.83,215.3 180.23,545.24 179.48,824.65 1.51,225.49 -98.42,471.72 -309.57,575.41 -193.44,92.01 -414.02,46 -620.28,56.56 -1.13,-535.82 -0.37,-1072.02 -0.37,-1608.21zm2429.46 6.41c199.1,-69.76 447.59,-22.63 580.32,149.32 120.28,142.53 151.58,335.59 146.68,516.58 -6.04,248.12 34.31,521.11 -111.24,739.81 -161.76,265.84 -590.12,309.96 -795.62,73.53 -132.36,-148.94 -166.67,-355.57 -160.64,-548.25 4.91,-187.4 -17.34,-378.97 29.79,-562.22 42.99,-159.5 150.45,-311.83 310.71,-368.77z"/>
</svg>
