<?xml version="1.0" encoding="UTF-8"?>
<!DOCTYPE svg PUBLIC "-//W3C//DTD SVG 1.1//EN" "http://www.w3.org/Graphics/SVG/1.1/DTD/svg11.dtd">
<svg xmlns="http://www.w3.org/2000/svg" width="76.9152mm" height="85.2976mm" version="1.1" viewBox="0 0 7691.52 8529.76">
<path fill="#fff" d="M3575.85 1397.71c353.48,-437.8 601.13,-950.38 942.27,-1397.71 918.28,1428.75 1847.85,2850.1 2777.06,4271.79 127,195.44 265.64,389.82 328.79,617.36 131.24,416.98 68.44,889.71 -164.04,1259.77 -268.11,431.8 -759.88,718.96 -1269.65,727.78 -811.39,7.41 -1622.77,-1.76 -2433.81,4.23 -378.88,538.7 -720.37,1102.08 -1092.91,1645.36 -402.16,2.12 -804.68,7.76 -1206.85,-2.47 119.24,-212.02 253.3,-415.22 388.41,-617.36 889.71,-1375.13 1786.11,-2745.32 2678.99,-4117.98 251.18,384.18 500.24,769.41 752.48,1152.88 -123.83,8.12 -251.18,-6.7 -371.83,26.81 -64.91,80.44 -109.36,174.28 -159.1,264.23 -122.42,234.25 -271.99,452.97 -389.47,689.68 529.52,8.82 1059.39,-0.35 1589.27,4.59 178.85,4.23 373.23,-22.23 510.11,-148.17 231.78,-197.9 285.75,-565.15 112.19,-817.74 -590.2,-914.4 -1180.4,-1829.15 -1769.54,-2744.61 -85.72,-143.58 -174.62,-286.1 -283.63,-413.1 -1067.51,1692.63 -2151.24,3375.38 -3212.04,5072.24 -420.51,4.94 -841.73,10.23 -1261.89,-3.88 -35.27,-192.27 -92.78,-424.75 58.92,-584.2 -8.47,144.28 -35.63,286.81 -41.98,431.09 31.75,-181.32 52.21,-373.59 172.5,-522.46 -44.8,25.05 -90.31,49.74 -135.81,73.02 96.66,-191.2 246.94,-346.42 373.59,-517.17 535.51,-712.61 1073.5,-1423.81 1588.91,-2151.59 240.24,-338.67 485.77,-674.86 693.56,-1035.05 147.81,-239.89 95.6,-550.33 -43.04,-781.75 253.29,-303.04 478.01,-628.65 718.96,-941.57 194.73,-251.18 358.78,-527.4 579.61,-758.12 -81.49,192.27 -201.43,364.07 -304.09,545.04 -141.11,245.89 -281.52,492.48 -427.21,735.55 -51.16,84.66 -90.67,175.33 -121.36,269.17 190.15,-192.62 322.79,-431.8 489.3,-643.47 197.56,-250.47 366.19,-523.52 573.62,-766.59 -178.15,410.28 -466.02,762.36 -640.29,1174.4l0 0zm-89.61 250.12c-250.82,265.64 -409.93,598.31 -620.89,893.94 -726.72,1119.71 -1445.33,2244.72 -2175.22,3362.32 -198.26,324.2 -421.57,632.53 -610.31,962.38 250.83,-6.35 481.19,-153.46 594.08,-376.77 511.17,-951.09 1035.75,-1895.47 1582.56,-2826.45 197.91,-329.5 391.23,-662.87 613.13,-976.84 82.55,-118.89 196.14,-217.67 331.96,-270.23 135.47,-55.74 284.69,-52.92 428.63,-59.27 157.69,-329.14 356.65,-635.7 525.28,-958.85 155.93,-299.86 346.43,-581.02 481.9,-891.11 -223.31,283.63 -419.46,587.72 -639.59,873.83 -137.58,173.21 -233.89,383.47 -412.4,521.05 83.26,-234.6 234.25,-435.68 351.37,-653.34 160.51,-295.28 341.14,-579.27 487.19,-882.3 -325.62,417.33 -616.66,860.78 -937.69,1281.64z"/>
<path fill="#fff" d="M3701.12 4303.28c94.19,-34.93 191.2,-62.44 289.28,-83.61 -27.87,135.82 -190.86,76.2 -289.28,83.61z"/>
</svg>
